<svg xmlns="http://www.w3.org/2000/svg" viewBox="0 0 178.53 48.16"><defs><style>.cls-1{fill:#fff;}.cls-2{fill:red;}</style></defs><title>vanify_logo_main</title><g id="Layer_2" data-name="Layer 2"><g id="Layer_1-2" data-name="Layer 1"><path d="M0,0H154.09a24.44,24.44,0,0,1,24.44,24.44V44.92a3.25,3.25,0,0,1-3.25,3.25H24.44A24.44,24.44,0,0,1,0,23.72V0A0,0,0,0,1,0,0Z"/><path d="M46.59,38.19H47c2.32.07,4.63.2,6.94.18,1.73,0,3.45-.19,5.17-.35a1.78,1.78,0,0,1,1.21.22,4.38,4.38,0,0,0,4.27,0,1.86,1.86,0,0,0,.93-1.07.55.55,0,0,1,.43-.36c.74-.21,1.49-.43,2.22-.67a.65.65,0,0,0,.36-.33c.21-.47.4-1,.57-1.45a1.05,1.05,0,0,0,0-.5,2.09,2.09,0,0,1,.16-1.59,1.62,1.62,0,0,0,.22-1,3.43,3.43,0,0,0-.12-.79,7.41,7.41,0,0,1-.31-1.93,6,6,0,0,0-1.38-3.75c-.88-1.08-1.84-2.09-2.78-3.12a.72.72,0,0,1-.24-.65,6.18,6.18,0,0,0,0-1.36A2.4,2.4,0,0,0,64,18.24,1.09,1.09,0,0,0,63,17.89c-.17,0-.29.31-.44.49l-.28-.45a56.6,56.6,0,0,0-5.47-8.18,32.49,32.49,0,0,0-3.45-3.69,3,3,0,0,0-1.65-.8c-.46,0-.91-.13-1.37-.15-4.49-.24-9-.49-13.48-.7-3.36-.15-6.72-.24-10.07-.35l-8.93-.25A1.72,1.72,0,0,0,16.3,4.88c-.26.87-.53,1.74-.76,2.62a58.92,58.92,0,0,0-2,12.85c-.08,2,0,4.1-.06,6.15v.39H13.4l-.06-.16-.1,0a9.32,9.32,0,0,1,.33.88,1.3,1.3,0,0,0,.86,1,2.58,2.58,0,0,1,.41.2c1.12.55,1.12.55,1,1.8-.08.65,0,.8.69.89a3.18,3.18,0,0,0,.08.33,17.51,17.51,0,0,0,.73,1.91,2,2,0,0,0,.93.9,2.72,2.72,0,0,0,3.62-1.58c.14-.37.22-.75.33-1.14.63-.06,1.26-.14,1.89-.17a3,3,0,0,1,.94.07l10,2.84,3.82,1.1c.28,1.12.48,2.18.81,3.19a3.26,3.26,0,0,0,2.58,2.22,3.29,3.29,0,0,0,4.22-2.37Z"/><path class="cls-1" d="M43.24,41.69a5.13,5.13,0,0,1-1.13-.14,3.59,3.59,0,0,1-2.86-2.46c-.23-.71-.39-1.43-.57-2.19-.06-.27-.13-.55-.2-.82l-5.24-1.51c-2.77-.79-5.55-1.59-8.33-2.37a2.85,2.85,0,0,0-.8-.06c-.45,0-.89.07-1.33.12l-.29,0,0,.12a6.91,6.91,0,0,1-.24.81,3.1,3.1,0,0,1-4.1,1.8A2.33,2.33,0,0,1,17,33.93a9.4,9.4,0,0,1-.56-1.41c-.06-.18-.12-.36-.19-.54l0-.13c-.65-.15-.84-.5-.75-1.27.11-1,.11-1-.77-1.42l-.14-.07L14.31,29a1.67,1.67,0,0,1-1.1-1.23,4.37,4.37,0,0,0-.21-.57l-.25-.62.33-.13c0-.62,0-1.24,0-1.86,0-1.39,0-2.82.05-4.24a58.63,58.63,0,0,1,2-12.92c.17-.67.37-1.33.57-2l.19-.65a2.09,2.09,0,0,1,1.85-1.34h0l.57,0c2.79.07,5.57.15,8.36.24l1.87.06c2.73.08,5.47.17,8.2.29,3.5.16,7,.35,10.49.53l3,.16q.41,0,.81.09c.19,0,.38,0,.57.06a3.36,3.36,0,0,1,1.86.89,25.55,25.55,0,0,1,2.88,3l.62.72a47.08,47.08,0,0,1,4.73,7l.76,1.26a.65.65,0,0,1,.32-.19,1.46,1.46,0,0,1,1.44.45,2.73,2.73,0,0,1,.72,1.7,6.33,6.33,0,0,1,0,1.45c0,.13,0,.18.14.35l.48.51c.78.85,1.58,1.72,2.32,2.63a6.28,6.28,0,0,1,1.47,4,6.62,6.62,0,0,0,.29,1.84,3.8,3.8,0,0,1,.13.81,2,2,0,0,1-.27,1.28,1.74,1.74,0,0,0-.12,1.31,1.32,1.32,0,0,1,0,.71c-.19.55-.38,1-.58,1.48a1,1,0,0,1-.58.53c-.74.24-1.49.46-2.24.67-.14,0-.15.06-.18.13a2.17,2.17,0,0,1-1.12,1.27,4.77,4.77,0,0,1-4.62,0,1.41,1.41,0,0,0-1-.18l-.46,0c-1.55.15-3.15.3-4.74.32s-3.27,0-4.87-.11L47,38.57h-.09c0,.12-.07.25-.11.37A3.57,3.57,0,0,1,43.24,41.69ZM24.35,31.39a3,3,0,0,1,.77.09c2.78.78,5.55,1.58,8.33,2.37l5.66,1.62,0,.21c.09.36.17.71.25,1,.17.74.34,1.44.56,2.13a2.84,2.84,0,0,0,2.31,2,2.9,2.9,0,0,0,3.77-2.11l.12-.41.14-.48H47l2.1.07c1.59.06,3.22.12,4.83.11s3.15-.17,4.68-.31l.46,0a2.22,2.22,0,0,1,1.42.27,4,4,0,0,0,3.92,0,1.47,1.47,0,0,0,.75-.85.9.9,0,0,1,.68-.6c.74-.21,1.48-.43,2.21-.67a.29.29,0,0,0,.13-.12c.19-.42.37-.89.55-1.42a.61.61,0,0,0,0-.3,2.52,2.52,0,0,1,.21-1.86,1.29,1.29,0,0,0,.17-.78,3.94,3.94,0,0,0-.11-.71,7.37,7.37,0,0,1-.32-2,5.57,5.57,0,0,0-1.3-3.51c-.73-.89-1.52-1.75-2.29-2.59L64.61,22a1.07,1.07,0,0,1-.33-.95,6,6,0,0,0,0-1.28,2,2,0,0,0-.52-1.25.73.73,0,0,0-.71-.25s-.06.1-.1.16a1.66,1.66,0,0,1-.16.21l-.34.39-1.31-2.17A47.44,47.44,0,0,0,56.49,10l-.62-.72a25.73,25.73,0,0,0-2.79-2.93,2.61,2.61,0,0,0-1.44-.72L51,5.56l-.76-.08-3-.16c-3.49-.18-7-.37-10.48-.53-2.73-.12-5.47-.21-8.2-.29l-1.86-.06c-2.79-.09-5.57-.17-8.36-.24l-.57,0h0A1.37,1.37,0,0,0,16.66,5l-.19.64c-.2.66-.39,1.31-.57,2a58.34,58.34,0,0,0-2,12.76c-.05,1.4-.05,2.83-.05,4.21,0,.64,0,1.29,0,1.94v.73a2.83,2.83,0,0,1,.11.31.89.89,0,0,0,.6.72,2.21,2.21,0,0,1,.35.16l.12.06c1.26.63,1.34.77,1.17,2.18,0,.31,0,.38,0,.39a1.1,1.1,0,0,0,.37.09l.25,0,.09.36a.48.48,0,0,0,.05.17c.06.19.13.37.19.56a7.5,7.5,0,0,0,.52,1.3,1.5,1.5,0,0,0,.71.72A2.35,2.35,0,0,0,21.51,33c.09-.24.15-.48.22-.74l.17-.63.8-.07c.45-.05.91-.09,1.36-.11Z"/><path class="cls-1" d="M43.76,21.89S42,16.12,40.39,12.22c0,0-.27-.8.53-.89s14.76-.43,16.55.23c0,0,.4.13,1,.93s5.43,8.87,5.43,8.87.53.18-.36.27S46.5,22.51,43.76,21.89Z"/><path class="cls-1" d="M38.59,12a21,21,0,0,0-3.51-.63s-.54-.54-.9,1.89-.63,5.85-.63,5.85-.09,1,.63,1.17,3.06.72,3.06.72.81-3.06,2.7-2.7l1.44.27S39.49,12.71,38.59,12Z"/><path class="cls-1" d="M54.86,28.42h-5.5s-1-.36-1,2.52c0,0,7.23.09,7.77,0C56.13,30.94,56,28.87,54.86,28.42Z"/><path class="cls-1" d="M53.78,31.35c-2.13,0-5,0-5.42,0H48v-.37c0-1.49.25-2.39.77-2.75A.86.86,0,0,1,49.4,28l5.61,0c1.26.52,1.47,2.6,1.49,2.84l0,.34-.34.06C56,31.34,55,31.35,53.78,31.35Zm-5-.78c2.4,0,5.82.05,7,0-.11-.61-.38-1.52-.92-1.8l-5.55,0s0,0-.07.05S48.79,29.26,48.74,30.57Z"/><path class="cls-1" d="M66.24,30.26l3-.45a11.15,11.15,0,0,0-.36-2.7l-2,.45s-.37.09-.46,1S66.24,30.26,66.24,30.26Z"/><path class="cls-1" d="M65.82,30.7l.05-.49s.09-.8.18-1.7c.11-1.08.59-1.28.73-1.32l2.24-.5.14.19a8.56,8.56,0,0,1,.44,2.91v.34ZM67,27.92a1.7,1.7,0,0,0-.17.66c0,.47-.1.91-.13,1.23l2.16-.32a16.45,16.45,0,0,0-.2-1.95Z"/><path class="cls-1" d="M88.81,12h5L86,35.15H81.38L73.56,12h5.16l5,17.57Z"/><path class="cls-1" d="M98.32,24.74a6.75,6.75,0,0,0,1.79-.39,1.35,1.35,0,0,0,1-1.27,1.48,1.48,0,0,0-.74-1.45,4.6,4.6,0,0,0-2.17-.4,2.84,2.84,0,0,0-2.27.78,3.27,3.27,0,0,0-.64,1.57H90.93a6.62,6.62,0,0,1,1.26-3.69q1.78-2.27,6.12-2.26a10.88,10.88,0,0,1,5,1.12q2.19,1.11,2.19,4.2V30.8q0,.82,0,2a2.4,2.4,0,0,0,.27,1.19,1.5,1.5,0,0,0,.65.52v.66h-4.86a4.51,4.51,0,0,1-.28-1,9.21,9.21,0,0,1-.13-1,9.21,9.21,0,0,1-2.15,1.71,6.43,6.43,0,0,1-3.28.83,5.67,5.67,0,0,1-3.86-1.32,4.72,4.72,0,0,1-1.53-3.76A4.87,4.87,0,0,1,92.83,26a11.07,11.07,0,0,1,4-1.1Zm2.74,2.09a5,5,0,0,1-.87.43,7.8,7.8,0,0,1-1.2.31l-1,.19a6.62,6.62,0,0,0-2.06.61,2,2,0,0,0-1,1.9,2,2,0,0,0,.64,1.65,2.47,2.47,0,0,0,1.57.51,4.74,4.74,0,0,0,2.71-.84,3.61,3.61,0,0,0,1.28-3.1Z"/><path class="cls-1" d="M120.2,19c1.12.93,1.68,2.46,1.68,4.61V35.15H117.3V24.74a4.75,4.75,0,0,0-.36-2.07,2.52,2.52,0,0,0-2.49-1.32,3.09,3.09,0,0,0-3.1,1.93,6.52,6.52,0,0,0-.44,2.61v9.26h-4.47V18.07h4.33v2.5a7.39,7.39,0,0,1,1.62-1.9,5.65,5.65,0,0,1,3.49-1A6.53,6.53,0,0,1,120.2,19Z"/><path class="cls-1" d="M127.59,16h-4.54a4.13,4.13,0,0,1,4.13-4.13h.41Zm-4.54,2h4.54V35.15h-4.54Z"/><path class="cls-1" d="M137.23,11.8l.94.07v3.64c-.25,0-.67,0-1.26-.07a1.48,1.48,0,0,0-1.22.39,1.42,1.42,0,0,0-.34.92V18.2h2.93v3.15h-2.93v13.8h-4.44V21.35h-2.52V18.2h2.45V17.1c0-1.83.31-3.1.93-3.79q1-1.53,4.69-1.53C136.75,11.78,137,11.78,137.23,11.8Z"/><path class="cls-1" d="M141.05,38.43l.57,0a7.29,7.29,0,0,0,1.25,0,2.34,2.34,0,0,0,1-.37,2.37,2.37,0,0,0,.73-1.11,2.78,2.78,0,0,0,.29-1L138.61,18h5l3.73,12.62L150.86,18h4.75l-5.86,16.83c-1.14,3.24-2,5.25-2.69,6s-2,1.17-4,1.17h-1L141.05,42Z"/><path class="cls-2" d="M152.75,30.46h4.76a4.69,4.69,0,0,1-4.69,4.69h0a.07.07,0,0,1-.07-.06Z"/></g></g></svg>